<svg width="28" height="28" viewBox="0 0 28 28" fill="none" xmlns="http://www.w3.org/2000/svg">
<circle cx="14" cy="14" r="14" fill="#B39DCB"/>
<path d="M14 14.2968C15.2426 14.2968 16.25 13.2121 16.25 11.8741C16.25 10.5361 15.2426 9.45142 14 9.45142C12.7574 9.45142 11.75 10.5361 11.75 11.8741C11.75 13.2121 12.7574 14.2968 14 14.2968Z" stroke="white" stroke-linecap="round" stroke-linejoin="round"/>
<path d="M19.625 11.8739C19.625 17.325 14 21.5647 14 21.5647C14 21.5647 8.375 17.325 8.375 11.8739C8.375 10.2675 8.96763 8.72698 10.0225 7.59112C11.0774 6.45526 12.5082 5.81714 14 5.81714C15.4918 5.81714 16.9226 6.45526 17.9775 7.59112C19.0324 8.72698 19.625 10.2675 19.625 11.8739Z" stroke="white" stroke-linecap="round" stroke-linejoin="round"/>
</svg>
