<svg width="28" height="28" viewBox="0 0 28 28" fill="none" xmlns="http://www.w3.org/2000/svg">
<circle cx="14" cy="14" r="14" fill="#B39DCB"/>
<path d="M11.5039 13.7103C12.0827 15.1693 13.0493 16.346 14.2461 17.0487C14.3344 17.0997 14.432 17.1218 14.5294 17.1128C14.6268 17.1037 14.7206 17.0639 14.8016 16.9972L16.5594 15.564C16.637 15.4997 16.7268 15.4605 16.8202 15.45C16.9137 15.4395 17.0078 15.4581 17.0938 15.5039L20.3844 17.2289C20.4968 17.286 20.5908 17.3867 20.6518 17.5154C20.7128 17.6441 20.7374 17.7937 20.7219 17.9412C20.6176 18.9348 20.2202 19.8479 19.6042 20.5097C18.9882 21.1716 18.1957 21.5368 17.375 21.537C14.8389 21.537 12.4066 20.3074 10.6133 18.1185C8.81997 15.9297 7.8125 12.9611 7.8125 9.86565C7.81268 8.86397 8.1119 7.89669 8.65416 7.14481C9.19642 6.39293 9.94456 5.90797 10.7586 5.78067C10.8794 5.76173 11.002 5.79179 11.1074 5.86622C11.2129 5.94066 11.2954 6.05534 11.3422 6.1926L12.7555 10.2175C12.7922 10.3208 12.8076 10.4335 12.8002 10.5458C12.7929 10.658 12.763 10.7663 12.7133 10.8611L11.5391 13.0409C11.4868 13.1395 11.4561 13.2528 11.4499 13.37C11.4438 13.4872 11.4624 13.6044 11.5039 13.7103Z" stroke="white" stroke-linecap="round" stroke-linejoin="round"/>
</svg>
